<?xml version="1.0" encoding="UTF-8"?>
<svg id="Layer_2" data-name="Layer 2" xmlns="http://www.w3.org/2000/svg" viewBox="0 0 1036.39 693.11">
  <defs>
    <style>
      .cls-1 {
        fill: #73d0c9;
      }

      .cls-1, .cls-2, .cls-3 {
        stroke: #000;
        stroke-miterlimit: 10;
      }

      .cls-2 {
        fill: #00a99d;
      }

      .cls-3 {
        fill: #a3e0dc;
      }
    </style>
  </defs>
  <g id="Layer_1-2" data-name="Layer 1">
    <path class="cls-2" d="m59.82,249.09c190.49-1.82,378.1-94.87,502.89-245.3-53.5,104.86-106.3,210.08-159.56,312.5-56.88,16.33-113.33,34.14-169.47,47.89,33.31,91.76,66.62,183.53,101.39,279.25-52.73,9.36-105.96,15.93-160.95,17.12,4.61-91.31,5.56-182.8-1.64-269.94-56.5,20.44-113.01,40.87-170.52,55.8,54.99-47.59,77.94-129.01,57.87-197.33Z"/>
    <path class="cls-2" d="m562.73,321.33c34.86,106.1,54.92,217.06,60.14,327.9,42.22-10.39,83.83-24.81,127.06-29.52,24-2.61,95.02,5.35,96.73,5.35-.96-.91-21.71-24.22-21.67-70.05.03-34.4,28-71.17,58.35-124.62-15.55,17.59-44.58,35.55-61.98,45.03-43.38,23.64-80.99,41.05-117.4,68.05-10.44-77.05-17.39-154.85.74-230.45,5.99-24.97,14.51-48.22,25.49-76.67-11.49,7.01-53.66,31.52-71.88,41.19-23.74,12.6-97.22,41.67-95.57,43.79Z"/>
    <path class="cls-1" d="m579.24,364.28c88.7-13.37,177.4-26.74,266.1-40.11-52.76,20.75-96.6,63.22-119,115.31-14.83-2.48-29.98.52-44.71,3.52-8.19,1.67-16.64,3.44-23.5,8.22-6.85,4.78-11.74,13.43-9.55,21.5,10.18-2.5,20.35-5,28.76-7.77,1.97,18.12.57,24.13-26.59,33.06.84,7.74.58,20.88-4.81,26.5,31.89-9.64,64.4-17.25,97.26-22.75-31.13,11.54-52.92,44.5-51.35,77.66-51.71-9.32-104.44,5.03-155.02,19.25,32.29-52.79,56.91-110.25,72.85-170.04,6.02-22.59,10.53-47.83-30.44-64.36Z"/>
    <path class="cls-2" d="m419.89,486.84c30.89-16.12,63.55-43.07,87.44-68.44-11.25,31.49-16.87,64.98-16.5,98.42-1.05-43.32,19.82-86.61,54.37-112.76,2.43-1.84,5.27-3.69,8.28-3.23,5.35.82,6.92,7.71,7,13.13.26,18.24-2.17,36.52-7.2,54.05,12.89-37.16,32.52-76.64,69.23-90.76,3.57-1.37,8.1-2.29,10.81.4,2.8,2.78,1.77,7.44.55,11.19-9.77,30.11-18.97,61.35-16.24,92.88,2.72,31.54,20,63.77,49.46,75.34-32.72.82-64.95,14.38-88.42,37.19,2.43-29.91-19.43-74.38-38.97-76.09-14.39-1.37-5.64,29.23-5.4,32.56,0-2.24-3.6-15.21-7.89-20.58s-11.28-6.46-16.11-1.58c-1.86,1.88-2.82,4.45-3.57,6.98-7.72,25.88,1.81,56.02,23.01,72.74-28.27,5.47-54.8,19.56-75.16,39.92,7.81-38.06,15.3-79.24-1.1-114.46-7.24-15.56-17.46-32.02-33.58-46.93Z"/>
    <path class="cls-3" d="m292.53,456.51c79.55-41.44,159.11-82.89,238.66-124.33-43.17,36.76-70.83,91.16-75.11,147.7-14.84,2.47-28.18,10.23-41.15,17.85-7.21,4.24-14.62,8.66-19.55,15.41s-6.75,16.52-2.06,23.44c8.81-5.67,17.63-11.34,24.68-16.69,7.75,16.5,8.38,22.64-14.42,39.9,3.31,7.05,7.33,19.56,4.06,26.63,27.03-19.47,55.31-37.22,84.61-53.1-25.69,21.02-35.6,59.27-23.35,90.13-51.94,7.98-97.15,38.66-140.38,68.54,13.4-60.41,18.03-122.76,13.69-184.48-1.64-23.32-5.57-48.66-49.68-50.99Z"/>
    <path class="cls-2" d="m172.2,425.11c45.33-15.28,142.23-60.73,186.09-79.84-34.32,17.88-49.11,34.13-48.43,72.83,10.05-26.57,12.59-34.44,35.03-51.86,20.83-16.18,37.85-19.38,51.65-19.48,13.46-.09,37.43,3.48,51.55,15.53-7.98-7-21.16-4.28-28.85,3.05s-11.21,17.89-14.37,28.03c-11.04,35.43-13.91,67.03-8.73,103.77,3.26,6.59-15.25-23.08-28.63-30.27-9.89-5.31-22.8-7.12-30.37-5.63-4.14.81-10.42.45-25.29,11.24-6.77,4.91-14.8,18.64-13.49,39.03,1.44,22.48,38,65.12,56.69,70.02-50.53,2.12-103.05,4.76-147.6,28.72,14.27-48.71,26.19-59.35,23.55-110.04-1.44-27.6-54.69-71.48-58.79-75.12Z"/>
    <path class="cls-2" d="m781.95,149.55c17.01,105.24,43.69,211,53.48,293.06-2.63-12-17.63-38.45-51.14-34.26-36.55,4.57-54.24,61.5-53.31,89.36,3.55,106.54,72.41,98.02,82.72,94.53,20.58-6.97,35.81-27.55,41.21-47.85l-.51,1.97c1.8,21.4,25.19,33.42,43.61,32.05,42.57-3.17,50-32.83,52.95-51.11,20.06-124.51,84.53-485.43,84.77-486.1-5.92-1.03-246.8,105.65-253.78,108.35Zm16.7,390.26c-21.31-.17-22.05-86.52-6.67-86.52,17.9,0,22.36,86.52,6.67,86.52Zm54.91-384.62c-.58-1.26,102.37-51.06,103.43-51.01.54.03,2.63,55.38,3.34,57.09.51,1.23-95.27,56.4-95.49,54.96s-10.67-59.73-11.27-61.04Zm-27.65,82.72c-.65-3.7-12.65-60.18-11.94-63.64.51-2.44,24.63-13.06,24.63-13.06,0,0,10.72,63.11,10.72,63.18,0,.04-23.08,15.44-23.42,13.51Zm74.43,285.57c-19.22,0-17.91-87-2.41-87,18.16,0,15.48,87.11,2.41,87Zm47.04-76.61c.74-19.2-9.97-57.13-52.59-54.57-15.25.92-37.84,13.96-37.29,29.23l-.08,3.14c0-2.42-15.98-97.54-24.68-145.96,49.4-27.38,106.43-60.11,151.88-88.99-12.41,84.05-24.82,173.1-37.24,257.15Zm42.26-302.81c-2.13.42-14.85,7.67-14.85,7.67,0,0-.23-55.46.22-56.55,2.2-.17,29.2-16.41,29.2-16.41,0,0-12.49,64.88-14.58,65.3Z"/>
  </g>
</svg>